<svg xmlns="http://www.w3.org/2000/svg" width="239" height="55" fill="none"><path fill="#fff" d="M11.18 13.469v27.308h27.354V29.891h-5.437v5.38h-5.492V24.38h-5.449v10.893h-5.485V18.957h16.426v5.422h5.437V13.47zM63.405 36.945c-5.078 0-8.45-3.467-8.45-8.495 0-5.602 4.138-8.435 8.33-8.49 3.072 0 5.617 1.06 7.39 3.654.173.179.173.352 0 .472l-2.84 2.302a.46.46 0 0 1-.233.12.36.36 0 0 1-.3-.24 4.49 4.49 0 0 0-3.778-1.943 3.88 3.88 0 0 0-2.946 1.125 3.87 3.87 0 0 0-1.132 2.94 3.83 3.83 0 0 0 1.119 2.955 3.85 3.85 0 0 0 2.96 1.117 4.2 4.2 0 0 0 3.664-1.83.48.48 0 0 1 .353-.173c.088.012.17.052.234.113l2.485 2.541c.174.114.174.293.054.472-1.45 2.182-3.844 3.36-6.91 3.36M88.627 20.726l-9.156 23.316a.47.47 0 0 1-.473.293H75.1c-.24 0-.36-.234-.24-.473l2.899-7.43-6.144-15.706a.322.322 0 0 1 .24-.472h4.077a.396.396 0 0 1 .413.293l3.66 10.384 4.137-10.384c.06-.233.234-.293.473-.293h3.898c.114 0 .24.233.114.472M90.938 36.533a.336.336 0 0 1-.36-.3V12.232a.34.34 0 0 1 .36-.353h3.718a.34.34 0 0 1 .354.353v9.565a5.88 5.88 0 0 1 4.371-1.793c4.964-.06 8.216 3.42 8.216 8.489s-3.252 8.453-8.192 8.453a5.85 5.85 0 0 1-4.868-2.272l-.6 1.59q-.091.36-.352.36l-2.66-.06zm4.132-8.083c0 1.08.43 2.115 1.194 2.879a4.081 4.081 0 0 0 6.962-2.879c0-1.08-.43-2.115-1.195-2.879a4.08 4.08 0 0 0-5.767 0 4.07 4.07 0 0 0-1.194 2.88M118.527 32.755a5.1 5.1 0 0 0 3.365-1.07c.18-.12.24-.18.353-.18.114 0 .18.06.24.18l2.359 2.391a.377.377 0 0 1 .06.532c-1.533 1.65-3.778 2.302-6.617 2.302-5.198 0-8.623-3.42-8.623-8.495 0-5.076 3.365-8.49 8.45-8.49s8.503 2.948 8.449 9.847a.331.331 0 0 1-.102.255.34.34 0 0 1-.257.098h-11.827c.545 1.632 1.904 2.63 4.15 2.63m3.365-5.775c-.413-1.716-1.653-2.834-3.778-2.834s-3.372 1.118-3.785 2.834zM136.484 24.439a2.91 2.91 0 0 0-2.539 1.794v10.06a.35.35 0 0 1-.098.258.34.34 0 0 1-.255.102h-3.785a.345.345 0 0 1-.332-.22.3.3 0 0 1-.021-.14V20.608a.34.34 0 0 1 .216-.33.3.3 0 0 1 .137-.023h2.599a.46.46 0 0 1 .473.353l.353 1.004a5.86 5.86 0 0 1 4.138-1.65 7.1 7.1 0 0 1 2.395.413c.24.054.3.233.24.472l-.946 3.952a.33.33 0 0 1-.353.233.22.22 0 0 1-.18-.06 4.3 4.3 0 0 0-2.042-.532M142.035 20.608a.345.345 0 0 1 .36-.353h2.994c.233 0 .353.173.473.353l.371 1.512c1.06-1.477 2.659-2.302 4.905-2.302 3.658 0 6.203 2.768 6.203 7.312v9.027a.343.343 0 0 1-.22.331.34.34 0 0 1-.139.022h-3.778a.35.35 0 0 1-.254-.1.34.34 0 0 1-.1-.253v-8.118c0-2.392-1.299-3.773-3.072-3.773-1.653.06-3.192 1.357-3.251 4.305v7.61a.33.33 0 0 1-.354.293h-3.778c-.24 0-.36-.12-.36-.293zM168.917 32.755a5.1 5.1 0 0 0 3.372-1.07c.173-.12.233-.18.353-.18s.174.06.234.18l2.365 2.391a.39.39 0 0 1 .06.532c-1.539 1.65-3.785 2.302-6.617 2.302-5.198 0-8.629-3.42-8.629-8.495 0-5.076 3.371-8.49 8.449-8.49s8.509 2.948 8.45 9.847a.36.36 0 0 1-.1.253.34.34 0 0 1-.254.1h-11.815c.527 1.632 1.947 2.63 4.132 2.63m3.372-5.775c-.413-1.716-1.659-2.834-3.785-2.834s-3.365 1.118-3.778 2.834zM187.589 20.547c.06-.233.174-.293.354-.293h3.191a.395.395 0 0 1 .413.293l2.659 10.265 1.946-10.265a.38.38 0 0 1 .354-.293h4.317c.234 0 .294.173.234.353l-4.312 15.687a.39.39 0 0 1-.413.239h-4.018a.42.42 0 0 1-.413-.24l-2.366-9.612-2.395 9.613a.395.395 0 0 1-.413.239h-3.898c-.18 0-.36-.12-.36-.24l-4.425-15.686a.253.253 0 0 1 .115-.32.26.26 0 0 1 .118-.033h4.312a.37.37 0 0 1 .353.293l2.072 9.673zM202.355 34.674l1.539-2.99a.32.32 0 0 1 .234-.179c.06 0 .179.06.239.06a9 9 0 0 0 3.779 1.238c.233 0 .353.06.599.06 1.299 0 2.299-.413 2.299-.999 0-.83-1.533-1.243-3.659-1.889-3.191-.885-4.904-2.391-4.964-4.836-.18-3.42 2.994-5.25 6.797-5.25 2.012.034 3.967.671 5.611 1.83a.324.324 0 0 1 .12.472l-1.539 2.828a.31.31 0 0 1-.294.24c-.06 0-.179-.06-.239-.06a9 9 0 0 0-3.132-1.065q-.38-.075-.767-.06c-1.239 0-2.066.473-2.066 1.065 0 .765 1.06 1.117 2.833 1.53 3.665.825 5.677 2.009 5.731 4.956.119 3.306-2.539 5.38-6.498 5.309a12.6 12.6 0 0 1-6.497-1.794.3.3 0 0 1-.186-.2.298.298 0 0 1 .06-.266M223.746 23.202h-.599v1.65h-1.126v-4.598h1.833c.459-.016.912.107 1.299.353a1.25 1.25 0 0 1 .473 1.005c.01.265-.049.53-.173.765-.12.233-.36.352-.599.532l.946 1.83v.113h-1.198zm-.599-.825h.707a.6.6 0 0 0 .473-.18.706.706 0 0 0 0-.938.6.6 0 0 0-.473-.18h-.707z"></path><path fill="#fff" d="M223.625 19.077a3.538 3.538 0 0 1 .688 7.011 3.55 3.55 0 0 1-3.638-1.51 3.54 3.54 0 0 1-.595-1.968 3.55 3.55 0 0 1 1.044-2.495 3.56 3.56 0 0 1 2.501-1.038m0-1.196a4.735 4.735 0 0 0-4.375 2.913 4.72 4.72 0 0 0 1.024 5.15 4.735 4.735 0 0 0 7.281-.72 4.714 4.714 0 0 0-.592-5.958 4.74 4.74 0 0 0-3.338-1.385"></path></svg>