<svg xmlns="http://www.w3.org/2000/svg" width="24" height="24" fill="none"><path stroke="currentColor" stroke-width="1.44" d="M5.76 8.64v9.6c0 .53.43.96.96.96h9.6c.53 0 .96-.43.96-.96v-9.6m-11.52 0h11.52m-11.52 0v-.288m11.52.288v-.288m-11.52 0V8.16c0-2.916 2.897-5.283 5.813-5.283S17.28 5.244 17.28 8.16v.192m-11.52 0c0 .159.129.288.288.288h10.944a.29.29 0 0 0 .288-.288"></path><path stroke="currentColor" stroke-linecap="round" stroke-width="1.44" d="M8.558 3.671 7.134 2.068m7.948 1.603 1.328-1.603"></path><path stroke="currentColor" stroke-width="1.44" d="M2.88 10.08v6.72a1.44 1.44 0 1 0 2.88 0v-6.72a1.44 1.44 0 1 0-2.88 0ZM17.28 10.08v6.72a1.44 1.44 0 1 0 2.88 0v-6.72a1.44 1.44 0 1 0-2.88 0ZM12.48 19.2v2.4a1.44 1.44 0 1 0 2.88 0v-2.4M7.68 19.2v2.4a1.44 1.44 0 1 0 2.88 0v-2.4"></path><circle cx="9.51" cy="6.101" r="0.639" fill="currentColor"></circle><circle cx="13.779" cy="6.101" r="0.639" fill="currentColor"></circle></svg>