<svg xmlns="http://www.w3.org/2000/svg" width="24" height="24" fill="none"><path stroke="currentColor" stroke-width="2" d="M3.441 10.888a748 748 0 0 1 10.696-4.465c5.09-2.053 6.148-2.413 6.835-2.413.143 0 .486.027.715.194.171.139.229.333.257.471.029.14.057.444.029.694-.286 2.801-1.459 9.652-2.088 12.786-.257 1.331-.772 1.775-1.258 1.83-1.058.084-1.888-.693-2.917-1.33-1.602-1.027-2.301-1.525-3.874-2.524-1.802-1.165-.63-1.802.4-2.829.258-.277 4.76-4.55 4.846-4.938 0-.055.029-.222-.085-.305-.115-.083-.258-.055-.372-.028-.172.028-2.746 1.692-7.75 4.965-.744.5-1.402.721-2.002.721-.658 0-1.916-.36-2.86-.665-1.144-.361-2.059-.555-1.973-1.165.086-.333.543-.666 1.401-.999Z" clip-rule="evenodd"></path></svg>