<svg xmlns="http://www.w3.org/2000/svg" width="195" height="55" fill="none"><path fill="#fff" d="M23.67 22.413h-4.275v9.64c0 1.647.95 2 2.494 2 .594 0 1.188-.118 1.782-.118v5.055c-1.307 0-2.613.235-3.8.235-5.939 0-7.483-1.763-7.483-7.524v-9.288H8.825v-4.586h3.563v-6.349h7.007v6.35h4.276zm6.176 7.76c.12 2.939 1.782 4.82 4.751 4.82 1.663 0 3.325-.823 4.038-2.352h6.532c-1.188 4.938-5.82 7.055-10.57 7.055-7.007 0-11.758-4.115-11.758-11.287 0-6.467 5.226-11.17 11.52-11.17 7.72 0 11.52 5.761 11.164 12.933zm8.67-3.88c-.119-2.352-1.781-4.35-4.157-4.35-2.494 0-4.156 1.763-4.513 4.35zm22.446-.706c0-1.764-1.662-3.057-3.444-3.057-3.919 0-4.513 3.292-4.513 6.231 0 2.705 1.188 5.526 4.157 5.526 2.494 0 3.682-1.41 4.038-3.644h6.77c-.594 5.76-4.989 9.053-10.69 9.053-6.413 0-11.282-4.35-11.282-10.817 0-6.702 4.276-11.522 11.283-11.522 5.344 0 10.095 2.822 10.57 8.348h-6.889zm7.245-14.109h7.007v9.289h.119c1.068-2.117 3.919-3.528 6.532-3.528 7.125 0 7.72 5.174 7.72 8.23v13.639h-7.008V28.879c0-2.94.356-5.879-3.563-5.879-2.613 0-3.8 2.234-3.8 4.586v11.522h-7.007zm21.97 6.35h6.77v3.762h.12c1.068-2.705 3.443-4.116 6.412-4.116.594 0 1.069 0 1.663.118v6.349c-.95-.235-1.781-.353-2.732-.353-3.444 0-5.225 2.352-5.225 5.056v10.464h-7.007zm14.965 6.583c.119-2.822 1.425-4.585 3.325-5.643s4.395-1.529 6.77-1.529c5.107 0 9.976 1.058 9.976 7.055v9.288c0 1.764 0 3.762.831 5.408h-7.007c-.237-.705-.356-1.293-.356-1.998-1.9 1.998-4.513 2.704-7.126 2.704-4.038 0-7.363-2-7.363-6.467 0-6.937 7.601-6.349 12.47-7.407 1.188-.235 1.9-.705 1.9-1.999 0-1.646-1.9-2.233-3.444-2.233-1.9 0-3.206.823-3.563 2.704h-6.413zm9.026 11.052c3.325 0 4.513-1.881 4.275-6.231-.95.588-2.85.705-4.275 1.175-1.544.353-2.85 1.059-2.85 2.705s1.306 2.351 2.85 2.351m33.729 3.645h-6.651v-2.47h-.119a6.74 6.74 0 0 1-2.509 2.277 6.8 6.8 0 0 1-3.31.78c-6.77 0-9.62-5.76-9.62-11.639 0-5.526 2.969-10.7 9.026-10.7 2.613 0 4.632.941 6.057 2.94h.119v-8.818h7.007zM132.695 28.29c0 2.94 1.069 6.114 4.275 6.114 3.445 0 4.157-3.175 4.157-5.879 0-3.057-1.069-5.878-4.157-5.878-3.206-.118-4.275 2.939-4.275 5.643m16.27-3.88c.119-2.822 1.426-4.585 3.326-5.643s4.394-1.529 6.769-1.529c5.107 0 9.976 1.058 9.976 7.055v9.288c0 1.764 0 3.762.832 5.408h-7.007c-.238-.705-.357-1.293-.357-1.998-1.9 1.998-4.631 2.704-7.125 2.704-4.038 0-7.364-2-7.364-6.467 0-6.937 7.601-6.349 12.47-7.407 1.188-.235 1.901-.705 1.901-1.999 0-1.646-1.901-2.233-3.444-2.233-1.901 0-3.207.823-3.563 2.704h-6.414zm9.026 11.052c3.326 0 4.513-1.881 4.276-6.231-.95.588-2.85.705-4.276 1.175-1.543.353-2.85 1.059-2.85 2.705-.119 1.646 1.307 2.351 2.85 2.351m12.114-17.636h6.77v3.762h.119c1.068-2.704 3.444-4.114 6.413-4.114.594 0 1.781 0 2.375.117v6.349c-.95-.235-2.375-.353-3.325-.353-3.445 0-5.226 2.352-5.226 5.056v10.464h-7.007v-21.28z"></path><path fill="#E6248A" d="M180.149 32.171h7.007v6.937h-7.007z"></path></svg>