<svg xmlns="http://www.w3.org/2000/svg" width="24" height="24" fill="none"><g stroke="currentColor" stroke-linecap="round" stroke-linejoin="round" clip-path="url(#youtube_svg__a)"><path stroke-width="3" d="M12 20.444c-2.556 0-7.111-.242-9-.724-.778-.241-1.334-.845-1.556-1.69C1.111 16.705.89 13.93.89 12s.222-4.706.555-6.033C1.666 5.123 2.222 4.52 3 4.28c1.889-.483 6.444-.724 9-.724s7.11.241 9 .724c.778.24 1.333.844 1.555 1.688.334 1.327.556 4.102.556 6.032s-.222 4.705-.556 6.032c-.222.844-.777 1.448-1.555 1.689-1.89.482-6.445.724-9 .724"></path><path stroke-width="2" d="m10 15 5-3-5-3z"></path></g><defs><clipPath id="youtube_svg__a"><path fill="#fff" d="M0 0h24v24H0z"></path></clipPath></defs></svg>