<svg xmlns="http://www.w3.org/2000/svg" fill="none" viewBox="0 0 30 30"><path stroke="#D7D8DB" stroke-linecap="round" stroke-linejoin="round" stroke-width="2" d="M6.788 6.787A10.07 10.07 0 0 0 5 12.5c0 7.5 10 15 10 15a37.4 37.4 0 0 0 6.25-6.25M23.977 16.9a10.8 10.8 0 0 0 1.025-4.4 10 10 0 0 0-10-10 9.85 9.85 0 0 0-4.4 1.025"></path><path stroke="#D7D8DB" stroke-linecap="round" stroke-linejoin="round" stroke-width="2" d="M11.413 11.412a3.5 3.5 0 0 0-.163 1.088 3.75 3.75 0 0 0 4.838 3.587M18.625 11.562a3.75 3.75 0 0 0-2.687-2.7M2.5 2.5l25 25"></path></svg>