<svg xmlns="http://www.w3.org/2000/svg" fill="none" viewBox="0 0 30 30"><path stroke="#fff" stroke-linecap="round" stroke-linejoin="round" stroke-width="2" d="M15 21.875h.012M10.25 27.5h9.5c1.4 0 2.1 0 2.635-.273a2.5 2.5 0 0 0 1.092-1.092c.273-.535.273-1.235.273-2.635v-17c0-1.4 0-2.1-.273-2.635a2.5 2.5 0 0 0-1.092-1.093C21.85 2.5 21.15 2.5 19.75 2.5h-9.5c-1.4 0-2.1 0-2.635.272a2.5 2.5 0 0 0-1.093 1.093C6.25 4.4 6.25 5.1 6.25 6.5v17c0 1.4 0 2.1.272 2.635a2.5 2.5 0 0 0 1.093 1.092c.535.273 1.235.273 2.635.273m5.375-5.625a.625.625 0 1 1-1.25 0 .625.625 0 0 1 1.25 0"></path></svg>