<svg xmlns="http://www.w3.org/2000/svg" width="158" height="55" fill="none"><path fill="#fff" d="M125.728 18.873v18.975h9.333c2.608 0 4.118-.412 5.216-1.375 1.373-1.237 2.059-3.437 2.059-8.112s-.686-6.875-2.059-8.113c-1.098-.962-2.608-1.375-5.216-1.375zm12.765 9.488c0 4.125-.275 5.087-1.098 5.637-.549.413-1.236.55-2.608.55h-5.216V22.036h5.216c1.372 0 2.059 0 2.608.55.823.687 1.098 1.65 1.098 5.775m8.647 13.682h-27.384V14.61h27.384zM97.384 22.036v-3.163h16.197v6.05h-3.433v-2.887h-6.589v4.537h5.216v3.025h-5.216v5.088h6.727v-3.3h3.431v6.462H97.385v-3.162h2.607v-12.65zM82.697 32.898c0 2.063.136 3.575.41 4.813h3.708c-.139-.963-.275-2.75-.275-5.088-.138-2.75-.962-3.162-2.883-3.575 2.196-.412 3.158-1.375 3.158-4.812 0-2.75-.413-3.85-1.237-4.538-.549-.55-1.509-.825-3.02-.825h-11.53v18.975h3.844v-7.425h5.354c1.098 0 1.509.138 1.922.413s.549.687.549 2.062m-7.825-5.5v-5.225h6.178c.823 0 1.098.138 1.234.275.274.275.549.688.549 2.338s-.275 2.2-.549 2.475c-.136.137-.41.275-1.234.275zm17.433 14.645H64.853V14.61h27.383v27.432zm-34.59-7.357v3.162h-13.04v-3.162h4.666v-12.65h-4.666v-3.163h13.04v3.163h-4.668v12.65zm-22.03-15.813h-3.57l-2.607 14.988-3.02-13.888c-.137-.962-.55-1.1-1.373-1.1h-1.921c-.824 0-1.236.275-1.373 1.1l-3.02 13.888-2.608-14.988H12.35l3.706 18.013c.137.825.412.962 1.373.962h2.608c.823 0 1.098-.137 1.372-.962l2.883-13.063 2.882 13.063c.137.825.412.962 1.373.962h2.47c.824 0 1.236-.137 1.373-.962zm1.921 23.17H10.154V14.61h27.384v27.432z"></path></svg>