<svg xmlns="http://www.w3.org/2000/svg" width="24" height="24" fill="none"><path stroke="currentColor" stroke-linecap="round" stroke-width="1.44" d="M3.257 21.272v-9.556a8.9 8.9 0 0 1 8.898-8.898v0a8.9 8.9 0 0 1 8.899 8.898v9.556"></path><path stroke="currentColor" stroke-width="1.5" d="M17.25 19.5c0 .084-.038.232-.248.439-.213.21-.56.433-1.048.637-.974.405-2.371.674-3.954.674s-2.98-.269-3.954-.674c-.489-.204-.835-.428-1.048-.637-.21-.207-.248-.355-.248-.439s.038-.232.248-.439c.213-.21.56-.433 1.048-.637.974-.405 2.371-.674 3.954-.674s2.98.269 3.954.674c.489.204.835.428 1.048.637.21.207.248.355.248.439Z"></path><ellipse cx="14.983" cy="13.435" stroke="currentColor" stroke-width="1.44" rx="4.196" ry="2.983" transform="rotate(90 14.983 13.435)"></ellipse><ellipse cx="14.729" cy="15.371" fill="currentColor" rx="1.44" ry="0.96" transform="rotate(90 14.729 15.371)"></ellipse><ellipse cx="15.681" cy="5.957" fill="currentColor" rx="1.413" ry="0.835" transform="rotate(34.229 15.681 5.957)"></ellipse><ellipse cx="9.017" cy="13.435" stroke="currentColor" stroke-width="1.44" rx="4.196" ry="2.983" transform="rotate(90 9.017 13.435)"></ellipse><ellipse cx="9.271" cy="15.373" fill="currentColor" rx="1.44" ry="0.96" transform="rotate(90 9.271 15.373)"></ellipse><ellipse cx="11.96" cy="16.44" fill="currentColor" rx="1.44" ry="0.96" transform="rotate(90 11.96 16.44)"></ellipse></svg>