<svg xmlns="http://www.w3.org/2000/svg" width="24" height="24" fill="none"><path stroke="currentColor" stroke-width="1.44" d="M20.88 17.28V6.72a3.6 3.6 0 0 0-3.6-3.6H6.72a3.6 3.6 0 0 0-3.6 3.6v10.56a3.6 3.6 0 0 0 3.6 3.6h10.56a3.6 3.6 0 0 0 3.6-3.6Z"></path><path fill="currentColor" d="M6.799 10.358a.488.488 0 0 1 0-.975h.079a.487.487 0 1 1 0 .975zm.04 4.522a.527.527 0 0 1-.528-.527v-2.928a.527.527 0 0 1 1.054 0v2.928a.527.527 0 0 1-.527.527M7.962 12.165q0-.84.252-1.41.188-.42.51-.754a2.2 2.2 0 0 1 .712-.495 3 3 0 0 1 1.185-.217q1.215 0 1.943.754.73.753.731 2.096 0 1.33-.724 2.085-.723.75-1.935.75-1.226 0-1.95-.746-.723-.75-.724-2.063m1.144-.037q0 .933.431 1.417.432.48 1.095.48a1.39 1.39 0 0 0 1.088-.476q.428-.48.428-1.436 0-.945-.417-1.41-.412-.465-1.098-.465t-1.107.472q-.42.469-.42 1.418M13.734 13.648c-.098-.297.137-.582.448-.612.29-.028.536.18.669.44q.096.187.238.31.3.255.806.254.536 0 .806-.225.274-.229.274-.532 0-.195-.116-.33-.113-.14-.398-.24-.195-.067-.889-.24-.892-.223-1.252-.544a1.43 1.43 0 0 1-.506-1.106q0-.42.236-.784a1.5 1.5 0 0 1 .686-.559q.45-.19 1.084-.191 1.035 0 1.556.454.308.266.444.636c.113.305-.154.586-.48.6-.298.014-.53-.221-.71-.46a.7.7 0 0 0-.12-.124q-.233-.187-.701-.187-.484 0-.758.198a.4.4 0 0 0-.176.342q0 .194.165.333.21.177 1.02.368t1.196.397q.39.203.608.56.22.351.22.873a1.62 1.62 0 0 1-1.004 1.5q-.48.199-1.196.199-1.043 0-1.602-.48-.375-.325-.548-.85"></path></svg>