<svg xmlns="http://www.w3.org/2000/svg" fill="none" viewBox="0 0 30 30"><path stroke="#D7D8DB" stroke-linecap="round" stroke-linejoin="round" stroke-width="2" d="M22.5 5h-15A2.5 2.5 0 0 0 5 7.5v15A2.5 2.5 0 0 0 7.5 25h15a2.5 2.5 0 0 0 2.5-2.5v-15A2.5 2.5 0 0 0 22.5 5"></path><path stroke="#D7D8DB" stroke-linecap="round" stroke-linejoin="round" stroke-width="2" d="M18.75 11.25h-7.5v7.5h7.5zM11.25 2.5V5M18.75 2.5V5M11.25 26.25v1.25M18.75 25v2.5M25 11.25h2.5M25 17.5h2.5M2.5 11.25H5M2.5 17.5H5"></path></svg>