<svg xmlns="http://www.w3.org/2000/svg" width="27" height="27" fill="none"><path fill="currentColor" d="M22.89 4.764A21.9 21.9 0 0 0 17.31 3a15 15 0 0 0-.71 1.484 20.8 20.8 0 0 0-6.182 0A18 18 0 0 0 9.708 3a21.6 21.6 0 0 0-5.582 1.764C.592 10.112-.363 15.334.115 20.486 2.46 22.236 4.726 23.3 6.952 24a17 17 0 0 0 1.46-2.422 14 14 0 0 1-2.306-1.134c.19-.14.382-.294.56-.448 4.448 2.086 9.265 2.086 13.659 0 .19.154.368.308.56.448-.738.448-1.501.826-2.307 1.134.423.854.915 1.666 1.46 2.422a22.4 22.4 0 0 0 6.838-3.514c.586-5.964-.93-11.144-3.986-15.722M9.026 17.308c-1.337 0-2.429-1.246-2.429-2.772s1.064-2.772 2.429-2.772c1.35 0 2.456 1.246 2.428 2.772 0 1.526-1.077 2.772-2.428 2.772m8.966 0c-1.338 0-2.43-1.246-2.43-2.772s1.065-2.772 2.43-2.772c1.35 0 2.456 1.246 2.428 2.772 0 1.526-1.064 2.772-2.428 2.772"></path></svg>