<svg xmlns="http://www.w3.org/2000/svg" width="24" height="24" fill="none"><g clip-path="url(#reddit_svg__a)"><path fill="currentColor" d="M24 12.605a2.636 2.636 0 0 0-2.728-2.534 2.64 2.64 0 0 0-1.724.73 12.8 12.8 0 0 0-6.938-2.217l1.169-5.62 3.856.81a1.8 1.8 0 1 0 1.599-1.984c-.57.059-1.08.39-1.362.883l-4.416-.882c-.3-.067-.6.12-.667.426v.008l-1.33 6.252c-2.509.04-4.95.81-7.028 2.216a2.63 2.63 0 0 0-3.717.117A2.627 2.627 0 0 0 1.538 15a6 6 0 0 0 0 .793c0 4.034 4.703 7.317 10.503 7.317s10.503-3.278 10.503-7.317a6 6 0 0 0 0-.793A2.63 2.63 0 0 0 24 12.605M5.98 14.41c0-.994.812-1.805 1.806-1.805s1.805.81 1.805 1.805-.81 1.805-1.805 1.805a1.81 1.81 0 0 1-1.805-1.805m10.468 5.024v-.072a6.92 6.92 0 0 1-4.452 1.389 6.92 6.92 0 0 1-4.452-1.389.487.487 0 0 1 .686-.685 5.9 5.9 0 0 0 3.748 1.133 5.93 5.93 0 0 0 3.767-1.097.51.51 0 0 1 .712.01.507.507 0 0 1-.009.711m-.246-3.09h-.09l.014-.067c-.994 0-1.805-.81-1.805-1.805s.81-1.804 1.805-1.804 1.805.81 1.805 1.804a1.8 1.8 0 0 1-1.73 1.872"></path></g><defs><clipPath id="reddit_svg__a"><path fill="#fff" d="M0 0h24v24H0z"></path></clipPath></defs></svg>